<mxfile host="app.diagrams.net" agent="Mozilla/5.0 (Windows NT 10.0; Win64; x64) AppleWebKit/537.36 (KHTML, like Gecko) Chrome/123.0.0.0 Safari/537.36" version="24.7.17">
  <diagram name="第 1 页" id="V3bblWeXRsB_C_1AeaLC">
    <mxGraphModel dx="1008" dy="592" grid="1" gridSize="10" guides="1" tooltips="1" connect="1" arrows="1" fold="1" page="1" pageScale="1" pageWidth="827" pageHeight="1169" math="0" shadow="0">
      <root>
        <mxCell id="0" />
        <mxCell id="1" parent="0" />
        <mxCell id="PyfO5TsYlASPaxUuEoxy-4" value="" style="shape=partialRectangle;whiteSpace=wrap;html=1;bottom=0;top=0;fillColor=none;" parent="1" vertex="1">
          <mxGeometry x="160" y="80" width="120" height="160" as="geometry" />
        </mxCell>
        <mxCell id="PyfO5TsYlASPaxUuEoxy-6" value="" style="endArrow=none;html=1;rounded=0;entryX=1;entryY=0.25;entryDx=0;entryDy=0;" parent="1" target="PyfO5TsYlASPaxUuEoxy-4" edge="1">
          <mxGeometry width="50" height="50" relative="1" as="geometry">
            <mxPoint x="160" y="120" as="sourcePoint" />
            <mxPoint x="250" y="120" as="targetPoint" />
          </mxGeometry>
        </mxCell>
        <mxCell id="PyfO5TsYlASPaxUuEoxy-7" value="" style="shape=partialRectangle;whiteSpace=wrap;html=1;bottom=0;top=0;fillColor=none;" parent="1" vertex="1">
          <mxGeometry x="360" y="80" width="120" height="160" as="geometry" />
        </mxCell>
        <mxCell id="PyfO5TsYlASPaxUuEoxy-8" value="" style="endArrow=none;html=1;rounded=0;entryX=1;entryY=0.25;entryDx=0;entryDy=0;" parent="1" target="PyfO5TsYlASPaxUuEoxy-7" edge="1">
          <mxGeometry width="50" height="50" relative="1" as="geometry">
            <mxPoint x="360" y="120" as="sourcePoint" />
            <mxPoint x="450" y="120" as="targetPoint" />
          </mxGeometry>
        </mxCell>
        <mxCell id="PyfO5TsYlASPaxUuEoxy-9" value="" style="shape=partialRectangle;whiteSpace=wrap;html=1;bottom=0;top=0;fillColor=none;" parent="1" vertex="1">
          <mxGeometry x="560" y="80" width="120" height="160" as="geometry" />
        </mxCell>
        <mxCell id="PyfO5TsYlASPaxUuEoxy-10" value="" style="endArrow=none;html=1;rounded=0;entryX=1;entryY=0.25;entryDx=0;entryDy=0;" parent="1" target="PyfO5TsYlASPaxUuEoxy-9" edge="1">
          <mxGeometry width="50" height="50" relative="1" as="geometry">
            <mxPoint x="560" y="120" as="sourcePoint" />
            <mxPoint x="650" y="120" as="targetPoint" />
          </mxGeometry>
        </mxCell>
        <mxCell id="PyfO5TsYlASPaxUuEoxy-11" value="$sp" style="text;html=1;align=center;verticalAlign=middle;whiteSpace=wrap;rounded=0;fontSize=14;" parent="1" vertex="1">
          <mxGeometry x="100" y="100" width="30" height="20" as="geometry" />
        </mxCell>
        <mxCell id="PyfO5TsYlASPaxUuEoxy-16" value="" style="endArrow=classic;html=1;rounded=0;" parent="1" edge="1">
          <mxGeometry width="50" height="50" relative="1" as="geometry">
            <mxPoint x="130" y="109.5" as="sourcePoint" />
            <mxPoint x="150" y="109.5" as="targetPoint" />
          </mxGeometry>
        </mxCell>
        <mxCell id="PyfO5TsYlASPaxUuEoxy-18" value="" style="endArrow=none;html=1;rounded=0;entryX=1;entryY=0.25;entryDx=0;entryDy=0;" parent="1" edge="1">
          <mxGeometry width="50" height="50" relative="1" as="geometry">
            <mxPoint x="360" y="140" as="sourcePoint" />
            <mxPoint x="480" y="140" as="targetPoint" />
          </mxGeometry>
        </mxCell>
        <mxCell id="PyfO5TsYlASPaxUuEoxy-19" value="" style="endArrow=none;html=1;rounded=0;entryX=1;entryY=0.25;entryDx=0;entryDy=0;" parent="1" edge="1">
          <mxGeometry width="50" height="50" relative="1" as="geometry">
            <mxPoint x="360" y="160" as="sourcePoint" />
            <mxPoint x="480" y="160" as="targetPoint" />
          </mxGeometry>
        </mxCell>
        <mxCell id="PyfO5TsYlASPaxUuEoxy-20" value="" style="endArrow=none;html=1;rounded=0;entryX=1;entryY=0.25;entryDx=0;entryDy=0;" parent="1" edge="1">
          <mxGeometry width="50" height="50" relative="1" as="geometry">
            <mxPoint x="360" y="180" as="sourcePoint" />
            <mxPoint x="480" y="180" as="targetPoint" />
          </mxGeometry>
        </mxCell>
        <mxCell id="PyfO5TsYlASPaxUuEoxy-21" value="$t1寄存器的内容" style="text;html=1;align=center;verticalAlign=middle;whiteSpace=wrap;rounded=0;fillColor=#f5f5f5;fontColor=#333333;strokeColor=#666666;" parent="1" vertex="1">
          <mxGeometry x="360" y="120" width="120" height="20" as="geometry" />
        </mxCell>
        <mxCell id="PyfO5TsYlASPaxUuEoxy-23" value="$t0寄存器的内容" style="text;html=1;align=center;verticalAlign=middle;whiteSpace=wrap;rounded=0;fillColor=#f5f5f5;fontColor=#333333;strokeColor=#666666;" parent="1" vertex="1">
          <mxGeometry x="360" y="140" width="120" height="20" as="geometry" />
        </mxCell>
        <mxCell id="PyfO5TsYlASPaxUuEoxy-24" value="$s0寄存器的内容" style="text;html=1;align=center;verticalAlign=middle;whiteSpace=wrap;rounded=0;fillColor=#f5f5f5;fontColor=#333333;strokeColor=#666666;" parent="1" vertex="1">
          <mxGeometry x="360" y="160" width="120" height="20" as="geometry" />
        </mxCell>
        <mxCell id="PyfO5TsYlASPaxUuEoxy-25" value="$sp" style="text;html=1;align=center;verticalAlign=middle;whiteSpace=wrap;rounded=0;fontSize=14;" parent="1" vertex="1">
          <mxGeometry x="300" y="160" width="30" height="20" as="geometry" />
        </mxCell>
        <mxCell id="PyfO5TsYlASPaxUuEoxy-26" value="" style="endArrow=classic;html=1;rounded=0;" parent="1" edge="1">
          <mxGeometry width="50" height="50" relative="1" as="geometry">
            <mxPoint x="330" y="169.5" as="sourcePoint" />
            <mxPoint x="350" y="169.5" as="targetPoint" />
          </mxGeometry>
        </mxCell>
        <mxCell id="PyfO5TsYlASPaxUuEoxy-27" value="$sp" style="text;html=1;align=center;verticalAlign=middle;whiteSpace=wrap;rounded=0;fontSize=14;" parent="1" vertex="1">
          <mxGeometry x="500" y="100" width="30" height="20" as="geometry" />
        </mxCell>
        <mxCell id="PyfO5TsYlASPaxUuEoxy-28" value="" style="endArrow=classic;html=1;rounded=0;" parent="1" edge="1">
          <mxGeometry width="50" height="50" relative="1" as="geometry">
            <mxPoint x="530" y="109.5" as="sourcePoint" />
            <mxPoint x="550" y="109.5" as="targetPoint" />
          </mxGeometry>
        </mxCell>
        <mxCell id="PyfO5TsYlASPaxUuEoxy-29" value="低地址" style="text;html=1;align=center;verticalAlign=middle;whiteSpace=wrap;rounded=0;fontStyle=1" parent="1" vertex="1">
          <mxGeometry x="40" y="210" width="60" height="30" as="geometry" />
        </mxCell>
        <mxCell id="PyfO5TsYlASPaxUuEoxy-30" value="高地址" style="text;html=1;align=center;verticalAlign=middle;whiteSpace=wrap;rounded=0;fontStyle=1" parent="1" vertex="1">
          <mxGeometry x="40" y="70" width="60" height="30" as="geometry" />
        </mxCell>
        <mxCell id="PyfO5TsYlASPaxUuEoxy-31" value="" style="shape=partialRectangle;whiteSpace=wrap;html=1;bottom=0;top=0;fillColor=none;" parent="1" vertex="1">
          <mxGeometry x="170" y="310" width="120" height="160" as="geometry" />
        </mxCell>
        <mxCell id="PyfO5TsYlASPaxUuEoxy-32" value="" style="endArrow=none;html=1;rounded=0;entryX=1;entryY=0.25;entryDx=0;entryDy=0;" parent="1" target="PyfO5TsYlASPaxUuEoxy-31" edge="1">
          <mxGeometry width="50" height="50" relative="1" as="geometry">
            <mxPoint x="170" y="350" as="sourcePoint" />
            <mxPoint x="260" y="350" as="targetPoint" />
          </mxGeometry>
        </mxCell>
        <mxCell id="PyfO5TsYlASPaxUuEoxy-33" value="" style="shape=partialRectangle;whiteSpace=wrap;html=1;bottom=0;top=0;fillColor=none;" parent="1" vertex="1">
          <mxGeometry x="370" y="310" width="120" height="160" as="geometry" />
        </mxCell>
        <mxCell id="PyfO5TsYlASPaxUuEoxy-34" value="" style="endArrow=none;html=1;rounded=0;entryX=1;entryY=0.25;entryDx=0;entryDy=0;" parent="1" target="PyfO5TsYlASPaxUuEoxy-33" edge="1">
          <mxGeometry width="50" height="50" relative="1" as="geometry">
            <mxPoint x="370" y="350" as="sourcePoint" />
            <mxPoint x="460" y="350" as="targetPoint" />
          </mxGeometry>
        </mxCell>
        <mxCell id="PyfO5TsYlASPaxUuEoxy-35" value="" style="shape=partialRectangle;whiteSpace=wrap;html=1;bottom=0;top=0;fillColor=none;" parent="1" vertex="1">
          <mxGeometry x="570" y="310" width="120" height="160" as="geometry" />
        </mxCell>
        <mxCell id="PyfO5TsYlASPaxUuEoxy-36" value="" style="endArrow=none;html=1;rounded=0;entryX=1;entryY=0.25;entryDx=0;entryDy=0;" parent="1" target="PyfO5TsYlASPaxUuEoxy-35" edge="1">
          <mxGeometry width="50" height="50" relative="1" as="geometry">
            <mxPoint x="570" y="350" as="sourcePoint" />
            <mxPoint x="660" y="350" as="targetPoint" />
          </mxGeometry>
        </mxCell>
        <mxCell id="PyfO5TsYlASPaxUuEoxy-37" value="$sp" style="text;html=1;align=center;verticalAlign=middle;whiteSpace=wrap;rounded=0;fontSize=14;" parent="1" vertex="1">
          <mxGeometry x="110" y="330" width="30" height="20" as="geometry" />
        </mxCell>
        <mxCell id="PyfO5TsYlASPaxUuEoxy-38" value="" style="endArrow=classic;html=1;rounded=0;" parent="1" edge="1">
          <mxGeometry width="50" height="50" relative="1" as="geometry">
            <mxPoint x="140" y="339.5" as="sourcePoint" />
            <mxPoint x="160" y="339.5" as="targetPoint" />
          </mxGeometry>
        </mxCell>
        <mxCell id="PyfO5TsYlASPaxUuEoxy-39" value="" style="endArrow=none;html=1;rounded=0;entryX=1;entryY=0.25;entryDx=0;entryDy=0;" parent="1" edge="1">
          <mxGeometry width="50" height="50" relative="1" as="geometry">
            <mxPoint x="370" y="370" as="sourcePoint" />
            <mxPoint x="490" y="370" as="targetPoint" />
          </mxGeometry>
        </mxCell>
        <mxCell id="PyfO5TsYlASPaxUuEoxy-40" value="" style="endArrow=none;html=1;rounded=0;entryX=1;entryY=0.25;entryDx=0;entryDy=0;" parent="1" edge="1">
          <mxGeometry width="50" height="50" relative="1" as="geometry">
            <mxPoint x="370" y="390" as="sourcePoint" />
            <mxPoint x="490" y="390" as="targetPoint" />
          </mxGeometry>
        </mxCell>
        <mxCell id="PyfO5TsYlASPaxUuEoxy-41" value="" style="endArrow=none;html=1;rounded=0;entryX=1;entryY=0.25;entryDx=0;entryDy=0;" parent="1" edge="1">
          <mxGeometry width="50" height="50" relative="1" as="geometry">
            <mxPoint x="370" y="410" as="sourcePoint" />
            <mxPoint x="490" y="410" as="targetPoint" />
          </mxGeometry>
        </mxCell>
        <mxCell id="PyfO5TsYlASPaxUuEoxy-42" value="1st 调用的返回地址" style="text;html=1;align=center;verticalAlign=middle;whiteSpace=wrap;rounded=0;fillColor=#f5f5f5;fontColor=#333333;strokeColor=#666666;" parent="1" vertex="1">
          <mxGeometry x="370" y="350" width="120" height="20" as="geometry" />
        </mxCell>
        <mxCell id="PyfO5TsYlASPaxUuEoxy-43" value="2nd 调用的返回地址" style="text;html=1;align=center;verticalAlign=middle;whiteSpace=wrap;rounded=0;fillColor=#f5f5f5;fontColor=#333333;strokeColor=#666666;" parent="1" vertex="1">
          <mxGeometry x="370" y="370" width="120" height="20" as="geometry" />
        </mxCell>
        <mxCell id="PyfO5TsYlASPaxUuEoxy-44" value="3rd 调用的返回地址" style="text;html=1;align=center;verticalAlign=middle;whiteSpace=wrap;rounded=0;fillColor=#f5f5f5;fontColor=#333333;strokeColor=#666666;" parent="1" vertex="1">
          <mxGeometry x="370" y="390" width="120" height="20" as="geometry" />
        </mxCell>
        <mxCell id="PyfO5TsYlASPaxUuEoxy-45" value="$sp" style="text;html=1;align=center;verticalAlign=middle;whiteSpace=wrap;rounded=0;fontSize=14;" parent="1" vertex="1">
          <mxGeometry x="310" y="390" width="30" height="20" as="geometry" />
        </mxCell>
        <mxCell id="PyfO5TsYlASPaxUuEoxy-46" value="" style="endArrow=classic;html=1;rounded=0;" parent="1" edge="1">
          <mxGeometry width="50" height="50" relative="1" as="geometry">
            <mxPoint x="340" y="399.5" as="sourcePoint" />
            <mxPoint x="360" y="399.5" as="targetPoint" />
          </mxGeometry>
        </mxCell>
        <mxCell id="PyfO5TsYlASPaxUuEoxy-47" value="$sp" style="text;html=1;align=center;verticalAlign=middle;whiteSpace=wrap;rounded=0;fontSize=14;" parent="1" vertex="1">
          <mxGeometry x="510" y="330" width="30" height="20" as="geometry" />
        </mxCell>
        <mxCell id="PyfO5TsYlASPaxUuEoxy-48" value="" style="endArrow=classic;html=1;rounded=0;" parent="1" edge="1">
          <mxGeometry width="50" height="50" relative="1" as="geometry">
            <mxPoint x="540" y="339.5" as="sourcePoint" />
            <mxPoint x="560" y="339.5" as="targetPoint" />
          </mxGeometry>
        </mxCell>
        <mxCell id="PyfO5TsYlASPaxUuEoxy-49" value="低地址" style="text;html=1;align=center;verticalAlign=middle;whiteSpace=wrap;rounded=0;fontStyle=1" parent="1" vertex="1">
          <mxGeometry x="50" y="440" width="60" height="30" as="geometry" />
        </mxCell>
        <mxCell id="PyfO5TsYlASPaxUuEoxy-50" value="高地址" style="text;html=1;align=center;verticalAlign=middle;whiteSpace=wrap;rounded=0;fontStyle=1" parent="1" vertex="1">
          <mxGeometry x="50" y="300" width="60" height="30" as="geometry" />
        </mxCell>
        <mxCell id="PyfO5TsYlASPaxUuEoxy-51" value="4th 调用的返回地址" style="text;html=1;align=center;verticalAlign=middle;whiteSpace=wrap;rounded=0;fillColor=#f5f5f5;fontColor=#333333;strokeColor=#666666;" parent="1" vertex="1">
          <mxGeometry x="370" y="410" width="120" height="20" as="geometry" />
        </mxCell>
        <mxCell id="PyfO5TsYlASPaxUuEoxy-52" value="..." style="text;html=1;align=center;verticalAlign=middle;whiteSpace=wrap;rounded=0;fillColor=#f5f5f5;fontColor=#333333;strokeColor=#666666;" parent="1" vertex="1">
          <mxGeometry x="370" y="430" width="120" height="20" as="geometry" />
        </mxCell>
        <mxCell id="PyfO5TsYlASPaxUuEoxy-53" value="" style="shape=partialRectangle;whiteSpace=wrap;html=1;bottom=0;top=0;fillColor=none;" parent="1" vertex="1">
          <mxGeometry x="170" y="520" width="120" height="160" as="geometry" />
        </mxCell>
        <mxCell id="PyfO5TsYlASPaxUuEoxy-54" value="" style="endArrow=none;html=1;rounded=0;entryX=1;entryY=0.25;entryDx=0;entryDy=0;" parent="1" target="PyfO5TsYlASPaxUuEoxy-53" edge="1">
          <mxGeometry width="50" height="50" relative="1" as="geometry">
            <mxPoint x="170" y="560" as="sourcePoint" />
            <mxPoint x="260" y="560" as="targetPoint" />
          </mxGeometry>
        </mxCell>
        <mxCell id="PyfO5TsYlASPaxUuEoxy-55" value="" style="shape=partialRectangle;whiteSpace=wrap;html=1;bottom=0;top=0;fillColor=none;" parent="1" vertex="1">
          <mxGeometry x="370" y="520" width="120" height="160" as="geometry" />
        </mxCell>
        <mxCell id="PyfO5TsYlASPaxUuEoxy-56" value="" style="endArrow=none;html=1;rounded=0;entryX=1;entryY=0.25;entryDx=0;entryDy=0;" parent="1" target="PyfO5TsYlASPaxUuEoxy-55" edge="1">
          <mxGeometry width="50" height="50" relative="1" as="geometry">
            <mxPoint x="370" y="560" as="sourcePoint" />
            <mxPoint x="460" y="560" as="targetPoint" />
          </mxGeometry>
        </mxCell>
        <mxCell id="PyfO5TsYlASPaxUuEoxy-59" value="$sp" style="text;html=1;align=center;verticalAlign=middle;whiteSpace=wrap;rounded=0;fontSize=14;" parent="1" vertex="1">
          <mxGeometry x="110" y="550" width="30" height="20" as="geometry" />
        </mxCell>
        <mxCell id="PyfO5TsYlASPaxUuEoxy-60" value="" style="endArrow=classic;html=1;rounded=0;" parent="1" edge="1">
          <mxGeometry width="50" height="50" relative="1" as="geometry">
            <mxPoint x="140" y="559.5" as="sourcePoint" />
            <mxPoint x="160" y="559.5" as="targetPoint" />
          </mxGeometry>
        </mxCell>
        <mxCell id="PyfO5TsYlASPaxUuEoxy-61" value="" style="endArrow=none;html=1;rounded=0;entryX=1;entryY=0.25;entryDx=0;entryDy=0;" parent="1" edge="1">
          <mxGeometry width="50" height="50" relative="1" as="geometry">
            <mxPoint x="370" y="580" as="sourcePoint" />
            <mxPoint x="490" y="580" as="targetPoint" />
          </mxGeometry>
        </mxCell>
        <mxCell id="PyfO5TsYlASPaxUuEoxy-62" value="" style="endArrow=none;html=1;rounded=0;entryX=1;entryY=0.25;entryDx=0;entryDy=0;" parent="1" edge="1">
          <mxGeometry width="50" height="50" relative="1" as="geometry">
            <mxPoint x="370" y="600" as="sourcePoint" />
            <mxPoint x="490" y="600" as="targetPoint" />
          </mxGeometry>
        </mxCell>
        <mxCell id="PyfO5TsYlASPaxUuEoxy-63" value="" style="endArrow=none;html=1;rounded=0;entryX=1;entryY=0.25;entryDx=0;entryDy=0;" parent="1" edge="1">
          <mxGeometry width="50" height="50" relative="1" as="geometry">
            <mxPoint x="370" y="620" as="sourcePoint" />
            <mxPoint x="490" y="620" as="targetPoint" />
          </mxGeometry>
        </mxCell>
        <mxCell id="PyfO5TsYlASPaxUuEoxy-64" value="参数寄存器" style="text;html=1;align=center;verticalAlign=middle;whiteSpace=wrap;rounded=0;fillColor=#f5f5f5;fontColor=#333333;strokeColor=#666666;" parent="1" vertex="1">
          <mxGeometry x="370" y="560" width="120" height="20" as="geometry" />
        </mxCell>
        <mxCell id="PyfO5TsYlASPaxUuEoxy-65" value="返回地址" style="text;html=1;align=center;verticalAlign=middle;whiteSpace=wrap;rounded=0;fillColor=#f5f5f5;fontColor=#333333;strokeColor=#666666;" parent="1" vertex="1">
          <mxGeometry x="370" y="580" width="120" height="20" as="geometry" />
        </mxCell>
        <mxCell id="PyfO5TsYlASPaxUuEoxy-66" value="需要保存的寄存器" style="text;html=1;align=center;verticalAlign=middle;whiteSpace=wrap;rounded=0;fillColor=#f5f5f5;fontColor=#333333;strokeColor=#666666;" parent="1" vertex="1">
          <mxGeometry x="370" y="600" width="120" height="20" as="geometry" />
        </mxCell>
        <mxCell id="PyfO5TsYlASPaxUuEoxy-67" value="$sp" style="text;html=1;align=center;verticalAlign=middle;whiteSpace=wrap;rounded=0;fontSize=14;" parent="1" vertex="1">
          <mxGeometry x="310" y="620" width="30" height="20" as="geometry" />
        </mxCell>
        <mxCell id="PyfO5TsYlASPaxUuEoxy-68" value="" style="endArrow=classic;html=1;rounded=0;" parent="1" edge="1">
          <mxGeometry width="50" height="50" relative="1" as="geometry">
            <mxPoint x="340" y="629.5" as="sourcePoint" />
            <mxPoint x="360" y="629.5" as="targetPoint" />
          </mxGeometry>
        </mxCell>
        <mxCell id="PyfO5TsYlASPaxUuEoxy-71" value="低地址" style="text;html=1;align=center;verticalAlign=middle;whiteSpace=wrap;rounded=0;fontStyle=1" parent="1" vertex="1">
          <mxGeometry x="60" y="660" width="60" height="30" as="geometry" />
        </mxCell>
        <mxCell id="PyfO5TsYlASPaxUuEoxy-72" value="高地址" style="text;html=1;align=center;verticalAlign=middle;whiteSpace=wrap;rounded=0;fontStyle=1" parent="1" vertex="1">
          <mxGeometry x="60" y="490" width="60" height="30" as="geometry" />
        </mxCell>
        <mxCell id="PyfO5TsYlASPaxUuEoxy-73" value="局部数组和结构体" style="text;html=1;align=center;verticalAlign=middle;whiteSpace=wrap;rounded=0;fillColor=#f5f5f5;fontColor=#333333;strokeColor=#666666;" parent="1" vertex="1">
          <mxGeometry x="370" y="620" width="120" height="20" as="geometry" />
        </mxCell>
        <mxCell id="PyfO5TsYlASPaxUuEoxy-75" value="" style="text;html=1;align=center;verticalAlign=middle;whiteSpace=wrap;rounded=0;fillColor=#f5f5f5;fontColor=#333333;strokeColor=#666666;" parent="1" vertex="1">
          <mxGeometry x="170" y="540" width="120" height="20" as="geometry" />
        </mxCell>
        <mxCell id="PyfO5TsYlASPaxUuEoxy-80" value="$fp" style="text;html=1;align=center;verticalAlign=middle;whiteSpace=wrap;rounded=0;fontSize=14;" parent="1" vertex="1">
          <mxGeometry x="110" y="530" width="30" height="20" as="geometry" />
        </mxCell>
        <mxCell id="PyfO5TsYlASPaxUuEoxy-81" value="" style="endArrow=classic;html=1;rounded=0;" parent="1" edge="1">
          <mxGeometry width="50" height="50" relative="1" as="geometry">
            <mxPoint x="140" y="539.5" as="sourcePoint" />
            <mxPoint x="160" y="539.5" as="targetPoint" />
          </mxGeometry>
        </mxCell>
        <mxCell id="PyfO5TsYlASPaxUuEoxy-82" value="$fp" style="text;html=1;align=center;verticalAlign=middle;whiteSpace=wrap;rounded=0;fontSize=14;" parent="1" vertex="1">
          <mxGeometry x="310" y="560" width="30" height="20" as="geometry" />
        </mxCell>
        <mxCell id="PyfO5TsYlASPaxUuEoxy-83" value="" style="endArrow=classic;html=1;rounded=0;" parent="1" edge="1">
          <mxGeometry width="50" height="50" relative="1" as="geometry">
            <mxPoint x="340" y="569.5" as="sourcePoint" />
            <mxPoint x="360" y="569.5" as="targetPoint" />
          </mxGeometry>
        </mxCell>
        <mxCell id="PyfO5TsYlASPaxUuEoxy-84" value="" style="shape=partialRectangle;whiteSpace=wrap;html=1;bottom=0;top=0;fillColor=none;" parent="1" vertex="1">
          <mxGeometry x="560" y="520" width="120" height="160" as="geometry" />
        </mxCell>
        <mxCell id="PyfO5TsYlASPaxUuEoxy-85" value="" style="endArrow=none;html=1;rounded=0;entryX=1;entryY=0.25;entryDx=0;entryDy=0;" parent="1" target="PyfO5TsYlASPaxUuEoxy-84" edge="1">
          <mxGeometry width="50" height="50" relative="1" as="geometry">
            <mxPoint x="560" y="560" as="sourcePoint" />
            <mxPoint x="650" y="560" as="targetPoint" />
          </mxGeometry>
        </mxCell>
        <mxCell id="PyfO5TsYlASPaxUuEoxy-86" value="$sp" style="text;html=1;align=center;verticalAlign=middle;whiteSpace=wrap;rounded=0;fontSize=14;" parent="1" vertex="1">
          <mxGeometry x="500" y="550" width="30" height="20" as="geometry" />
        </mxCell>
        <mxCell id="PyfO5TsYlASPaxUuEoxy-87" value="" style="endArrow=classic;html=1;rounded=0;" parent="1" edge="1">
          <mxGeometry width="50" height="50" relative="1" as="geometry">
            <mxPoint x="530" y="559.5" as="sourcePoint" />
            <mxPoint x="550" y="559.5" as="targetPoint" />
          </mxGeometry>
        </mxCell>
        <mxCell id="PyfO5TsYlASPaxUuEoxy-88" value="" style="text;html=1;align=center;verticalAlign=middle;whiteSpace=wrap;rounded=0;fillColor=#f5f5f5;fontColor=#333333;strokeColor=#666666;" parent="1" vertex="1">
          <mxGeometry x="560" y="540" width="120" height="20" as="geometry" />
        </mxCell>
        <mxCell id="PyfO5TsYlASPaxUuEoxy-89" value="$fp" style="text;html=1;align=center;verticalAlign=middle;whiteSpace=wrap;rounded=0;fontSize=14;" parent="1" vertex="1">
          <mxGeometry x="500" y="530" width="30" height="20" as="geometry" />
        </mxCell>
        <mxCell id="PyfO5TsYlASPaxUuEoxy-90" value="" style="endArrow=classic;html=1;rounded=0;" parent="1" edge="1">
          <mxGeometry width="50" height="50" relative="1" as="geometry">
            <mxPoint x="530" y="539.5" as="sourcePoint" />
            <mxPoint x="550" y="539.5" as="targetPoint" />
          </mxGeometry>
        </mxCell>
        <mxCell id="PyfO5TsYlASPaxUuEoxy-91" value="" style="rounded=0;whiteSpace=wrap;html=1;fillColor=#f5f5f5;fontColor=#333333;strokeColor=#666666;" parent="1" vertex="1">
          <mxGeometry x="200" y="760" width="160" height="280" as="geometry" />
        </mxCell>
        <mxCell id="PyfO5TsYlASPaxUuEoxy-92" value="" style="endArrow=none;html=1;rounded=0;" parent="1" edge="1">
          <mxGeometry width="50" height="50" relative="1" as="geometry">
            <mxPoint x="200" y="1000" as="sourcePoint" />
            <mxPoint x="360" y="1000" as="targetPoint" />
          </mxGeometry>
        </mxCell>
        <mxCell id="PyfO5TsYlASPaxUuEoxy-93" value="" style="endArrow=none;html=1;rounded=0;" parent="1" edge="1">
          <mxGeometry width="50" height="50" relative="1" as="geometry">
            <mxPoint x="200" y="960" as="sourcePoint" />
            <mxPoint x="360" y="960" as="targetPoint" />
          </mxGeometry>
        </mxCell>
        <mxCell id="PyfO5TsYlASPaxUuEoxy-94" value="" style="endArrow=none;html=1;rounded=0;" parent="1" edge="1">
          <mxGeometry width="50" height="50" relative="1" as="geometry">
            <mxPoint x="200" y="920" as="sourcePoint" />
            <mxPoint x="360" y="920" as="targetPoint" />
          </mxGeometry>
        </mxCell>
        <mxCell id="PyfO5TsYlASPaxUuEoxy-95" value="保留" style="text;html=1;align=center;verticalAlign=middle;whiteSpace=wrap;rounded=0;fontSize=14;" parent="1" vertex="1">
          <mxGeometry x="245" y="1000" width="70" height="40" as="geometry" />
        </mxCell>
        <mxCell id="PyfO5TsYlASPaxUuEoxy-96" value="代码" style="text;html=1;align=center;verticalAlign=middle;whiteSpace=wrap;rounded=0;fontSize=14;" parent="1" vertex="1">
          <mxGeometry x="245" y="960" width="70" height="40" as="geometry" />
        </mxCell>
        <mxCell id="PyfO5TsYlASPaxUuEoxy-97" value="静态数据" style="text;html=1;align=center;verticalAlign=middle;whiteSpace=wrap;rounded=0;fontSize=14;" parent="1" vertex="1">
          <mxGeometry x="245" y="920" width="70" height="40" as="geometry" />
        </mxCell>
        <mxCell id="PyfO5TsYlASPaxUuEoxy-98" value="动态数据" style="text;html=1;align=center;verticalAlign=middle;whiteSpace=wrap;rounded=0;fontSize=14;" parent="1" vertex="1">
          <mxGeometry x="245" y="880" width="70" height="40" as="geometry" />
        </mxCell>
        <mxCell id="PyfO5TsYlASPaxUuEoxy-99" value="栈" style="text;html=1;align=center;verticalAlign=middle;whiteSpace=wrap;rounded=0;fontSize=14;" parent="1" vertex="1">
          <mxGeometry x="245" y="760" width="70" height="40" as="geometry" />
        </mxCell>
        <mxCell id="PyfO5TsYlASPaxUuEoxy-102" value="" style="endArrow=classic;html=1;rounded=0;" parent="1" edge="1">
          <mxGeometry width="50" height="50" relative="1" as="geometry">
            <mxPoint x="279.5" y="880" as="sourcePoint" />
            <mxPoint x="279.5" y="850" as="targetPoint" />
          </mxGeometry>
        </mxCell>
        <mxCell id="PyfO5TsYlASPaxUuEoxy-104" value="" style="endArrow=classic;html=1;rounded=0;" parent="1" edge="1">
          <mxGeometry width="50" height="50" relative="1" as="geometry">
            <mxPoint x="280" y="790" as="sourcePoint" />
            <mxPoint x="280" y="820" as="targetPoint" />
          </mxGeometry>
        </mxCell>
        <mxCell id="PyfO5TsYlASPaxUuEoxy-109" style="edgeStyle=orthogonalEdgeStyle;rounded=0;orthogonalLoop=1;jettySize=auto;html=1;exitX=1;exitY=0.5;exitDx=0;exitDy=0;entryX=0;entryY=0.5;entryDx=0;entryDy=0;" parent="1" source="PyfO5TsYlASPaxUuEoxy-105" target="PyfO5TsYlASPaxUuEoxy-107" edge="1">
          <mxGeometry relative="1" as="geometry" />
        </mxCell>
        <mxCell id="PyfO5TsYlASPaxUuEoxy-105" value="$sp" style="text;html=1;align=center;verticalAlign=middle;whiteSpace=wrap;rounded=0;fontSize=14;fontFamily=Garamond;fontStyle=1" parent="1" vertex="1">
          <mxGeometry x="70" y="750" width="35" height="30" as="geometry" />
        </mxCell>
        <mxCell id="PyfO5TsYlASPaxUuEoxy-107" value="0x7fff fffc" style="text;html=1;align=center;verticalAlign=middle;whiteSpace=wrap;rounded=0;fontSize=14;fontFamily=Garamond;fontStyle=1" parent="1" vertex="1">
          <mxGeometry x="120" y="750" width="70" height="30" as="geometry" />
        </mxCell>
        <mxCell id="PyfO5TsYlASPaxUuEoxy-110" style="edgeStyle=orthogonalEdgeStyle;rounded=0;orthogonalLoop=1;jettySize=auto;html=1;exitX=1;exitY=0.5;exitDx=0;exitDy=0;entryX=0;entryY=0.5;entryDx=0;entryDy=0;" parent="1" source="PyfO5TsYlASPaxUuEoxy-111" target="PyfO5TsYlASPaxUuEoxy-112" edge="1">
          <mxGeometry relative="1" as="geometry" />
        </mxCell>
        <mxCell id="PyfO5TsYlASPaxUuEoxy-111" value="$gp" style="text;html=1;align=center;verticalAlign=middle;whiteSpace=wrap;rounded=0;fontSize=14;fontFamily=Garamond;fontStyle=1" parent="1" vertex="1">
          <mxGeometry x="70" y="920" width="35" height="30" as="geometry" />
        </mxCell>
        <mxCell id="PyfO5TsYlASPaxUuEoxy-112" value="0x1000 8000" style="text;html=1;align=center;verticalAlign=middle;whiteSpace=wrap;rounded=0;fontSize=14;fontFamily=Garamond;fontStyle=1" parent="1" vertex="1">
          <mxGeometry x="120" y="920" width="80" height="30" as="geometry" />
        </mxCell>
        <mxCell id="PyfO5TsYlASPaxUuEoxy-115" value="0x1000 0000" style="text;html=1;align=center;verticalAlign=middle;whiteSpace=wrap;rounded=0;fontSize=14;fontFamily=Garamond;fontStyle=1" parent="1" vertex="1">
          <mxGeometry x="120" y="950" width="80" height="30" as="geometry" />
        </mxCell>
        <mxCell id="PyfO5TsYlASPaxUuEoxy-116" style="edgeStyle=orthogonalEdgeStyle;rounded=0;orthogonalLoop=1;jettySize=auto;html=1;exitX=1;exitY=0.5;exitDx=0;exitDy=0;entryX=0;entryY=0.5;entryDx=0;entryDy=0;" parent="1" source="PyfO5TsYlASPaxUuEoxy-117" target="PyfO5TsYlASPaxUuEoxy-118" edge="1">
          <mxGeometry relative="1" as="geometry" />
        </mxCell>
        <mxCell id="PyfO5TsYlASPaxUuEoxy-117" value="pc" style="text;html=1;align=center;verticalAlign=middle;whiteSpace=wrap;rounded=0;fontSize=14;fontFamily=Garamond;fontStyle=1" parent="1" vertex="1">
          <mxGeometry x="70" y="990" width="35" height="30" as="geometry" />
        </mxCell>
        <mxCell id="PyfO5TsYlASPaxUuEoxy-118" value="0x0040 0000" style="text;html=1;align=center;verticalAlign=middle;whiteSpace=wrap;rounded=0;fontSize=14;fontFamily=Garamond;fontStyle=1" parent="1" vertex="1">
          <mxGeometry x="120" y="990" width="80" height="30" as="geometry" />
        </mxCell>
        <mxCell id="PyfO5TsYlASPaxUuEoxy-121" value="0" style="text;html=1;align=center;verticalAlign=middle;whiteSpace=wrap;rounded=0;fontSize=14;fontFamily=Garamond;fontStyle=1" parent="1" vertex="1">
          <mxGeometry x="170" y="1020" width="30" height="30" as="geometry" />
        </mxCell>
      </root>
    </mxGraphModel>
  </diagram>
</mxfile>
